<?xml version="1.0" encoding="UTF-8" standalone="no"?>
<svg width="255px" height="46px" viewBox="0 0 255 46" version="1.1" xmlns="http://www.w3.org/2000/svg" xmlns:xlink="http://www.w3.org/1999/xlink" xmlns:sketch="http://www.bohemiancoding.com/sketch/ns">
    <title>Slice 2</title>
    <description>Created with Sketch (http://www.bohemiancoding.com/sketch)</description>
    <defs></defs>
    <g id="Page-1" stroke="none" stroke-width="1" fill="none" fill-rule="evenodd" sketch:type="MSPage">
        <g id="modus-mark" sketch:type="MSLayerGroup" fill="#FFFFFF">
            <g id="mark" transform="translate(0.812500, 0.773438)" sketch:type="MSShapeGroup">
                <path d="M10.5671641,3.28167286 C10.4607013,3.6052721 10.3586439,3.94428082 10.2690684,4.29979971 C9.75364185,6.31330608 9.67140856,8.37414159 10.0194316,10.4214021 C14.6850696,13.8195609 17.4604433,19.2117809 17.4604433,24.9320028 C17.4604433,34.1483439 10.1427815,40.8712831 0.0167060054,41.0110692 L0.0167060054,44.9199425 C12.3263692,44.7434672 22.2821043,34.6854746 22.2821043,22.3424751 C22.2821043,14.184619 17.8892312,6.68423446 10.7863305,2.67519946 C10.7070341,2.87882483 10.6354471,3.08098263 10.5671641,3.28167286 Z M10.5671641,3.28167286" id="Fill-1"></path>
                <path d="M45.0390668,8.98061499 C44.8962599,9.01693735 44.7409711,9.06573406 44.5768716,9.11416388 C44.4553573,9.14791799 44.327602,9.1871755 44.1936058,9.22973503 L44.1150436,9.26018712 C42.6972535,9.72540688 41.352886,10.3850797 40.1061706,11.2237961 C38.5705372,18.5675176 32.028218,23.8801218 24.5009348,23.8801218 C24.1694318,23.8801218 23.828751,23.8709495 23.4851333,23.8500366 C23.354074,25.9233465 22.9561236,27.9691394 22.3008271,29.9290794 C22.2457601,30.0901453 22.1895919,30.2486429 22.1334236,30.4031046 C22.9208808,30.4819865 23.7134776,30.5271143 24.5009348,30.5271143 C36.6997298,30.5271143 46.7479774,20.7134721 47.0831515,8.5704291 C46.3893081,8.66325292 45.7083137,8.80267209 45.0390668,8.98061499" id="Fill-2"></path>
                <path d="M2.24324584,4.06902429 C2.02077541,5.34544351 1.90843886,6.65084723 1.90843886,7.94891311 C1.90843886,17.1083859 7.33289929,25.238725 15.7599763,28.7737348 C16.0566035,27.5218974 16.2089554,26.2297018 16.2089554,24.9320028 L16.2089554,24.6762787 C16.1924353,23.613024 16.0749591,22.5552728 15.8557927,21.5217364 L15.8102707,21.3089388 C11.9038222,18.7619706 9.3171446,14.6824922 8.70002779,10.0838609 L8.67983658,9.90481734 C8.35604299,7.23310573 8.70002779,4.54304948 9.67434546,2.08560312 C7.66880761,1.09609389 5.5366158,0.413673727 3.33173563,0.0566872668 C2.84677947,1.35291868 2.48186923,2.69941437 2.24324584,4.06902429" id="Fill-3"></path>
                <path d="M48.9869991,44.9199425 L48.9869991,41.0110692 C41.5871041,40.8833906 35.1182074,36.5092975 33.065312,30.2570814 L32.6611206,30.3422005 C31.3806308,30.8158588 30.0101983,31.1816506 28.6217772,31.4186632 C32.1897477,39.53983 40.1120444,44.7922639 48.9869991,44.9199425" id="Fill-4"></path>
                <path d="M39.0602659,2.21805133 C31.4474453,6.10234286 26.7179297,13.8133238 26.7179297,22.3424751 C26.7179297,22.3846677 26.7193981,22.424659 26.7193981,22.4672186 C26.9341592,22.4334645 27.148186,22.3938401 27.3614786,22.3516474 C29.0417544,22.0203434 30.6298849,21.4061653 32.0950325,20.5190191 C33.5796372,14.7195484 38.0257417,9.95324716 43.7255368,8.06888698 C44.8143937,7.70823159 45.9425317,7.45324126 47.0831515,7.31052006 C47.0097289,4.8134493 46.538356,2.37581513 45.6712352,0.0566872668 C43.3665004,0.432018355 41.1462015,1.15699805 39.0602659,2.21805133" id="Fill-5"></path>
            </g>
        </g>
        <g id="Imported-Layers" sketch:type="MSLayerGroup" transform="translate(65.964289, 12.205357)" fill="#FFFFFF">
            <path d="M3.12555116,0.8332419 L7.32573404,0.8332419 L11.5598903,11.5241289 C12.0480342,12.8026009 12.657767,14.6925938 12.657767,14.6925938 L12.7185615,14.6925938 C12.7185615,14.6925938 13.2961089,12.8026009 13.7824647,11.5241289 L18.0184091,0.8332419 L22.22038,0.8332419 L23.9565987,22.4581937 L20.0586001,22.4581937 L19.1431068,10.3654577 C19.0519151,8.93499952 19.1127096,7.01639746 19.1127096,7.01639746 L19.0519151,7.01639746 C19.0519151,7.01639746 18.4117851,9.11917101 17.8968201,10.3654577 L14.3921975,18.7425785 L10.9519456,18.7425785 L7.4795083,10.3654577 C6.96275528,9.11917101 6.292228,6.98600022 6.292228,6.98600022 L6.23143352,6.98600022 C6.23143352,6.98600022 6.292228,8.93499952 6.20103629,10.3654577 L5.28554304,22.4581937 L1.35714722,22.4581937 L3.12555116,0.8332419" id="Fill-1" sketch:type="MSShapeGroup"></path>
            <path d="M33.6533172,6.55865084 C38.4060145,6.55865084 42.2146095,9.94168447 42.2146095,14.6925938 C42.2146095,19.4739003 38.4060145,22.8265367 33.6855025,22.8265367 C28.9345932,22.8265367 25.1277863,19.4739003 25.1277863,14.6925938 C25.1277863,9.94168447 28.9345932,6.55865084 33.6533172,6.55865084 C33.6533172,6.55865084 28.9345932,6.55865084 33.6533172,6.55865084 L33.6533172,6.55865084 L33.6533172,6.55865084 Z M33.6855025,19.5364828 C36.1834401,19.5364828 38.2844256,17.5839074 38.2844256,14.6925938 C38.2844256,11.8281012 36.1834401,9.84870469 33.6855025,9.84870469 C31.1571676,9.84870469 29.0561821,11.8281012 29.0561821,14.6925938 C29.0561821,17.5839074 31.1571676,19.5364828 33.6855025,19.5364828 L33.6855025,19.5364828 Z M33.6855025,19.5364828" id="Fill-2" sketch:type="MSShapeGroup"></path>
            <path d="M51.1317283,6.55865084 C54.5433711,6.55865084 55.6090624,8.53804737 55.6090624,8.53804737 L55.671645,8.53804737 C55.671645,8.53804737 55.6412477,8.14467136 55.6412477,7.65473943 L55.6412477,0.8332419 L59.5106372,0.8332419 L59.5106372,22.4581937 L55.8540284,22.4581937 L55.8540284,21.1779336 C55.8540284,20.6021742 55.9148229,20.1748248 55.9148229,20.1748248 L55.8540284,20.1748248 C55.8540284,20.1748248 54.5433711,22.8265367 50.9797421,22.8265367 C46.7777711,22.8265367 44.0974501,19.5042975 44.0974501,14.6925938 C44.0974501,9.75751298 47.020949,6.55865084 51.1317283,6.55865084 C51.1317283,6.55865084 47.020949,6.55865084 51.1317283,6.55865084 L51.1317283,6.55865084 L51.1317283,6.55865084 Z M51.86305,19.5633039 C53.8728438,19.5633039 55.7628367,18.1042366 55.7628367,14.6604085 C55.7628367,12.2536625 54.4825766,9.87910193 51.8934473,9.87910193 C49.7620646,9.87910193 47.9936606,11.6153206 47.9936606,14.6925938 C47.9936606,17.6464899 49.5796811,19.5633039 51.86305,19.5633039 L51.86305,19.5633039 Z M51.86305,19.5633039" id="Fill-3" sketch:type="MSShapeGroup"></path>
            <path d="M62.1534087,6.92520575 L66.019222,6.92520575 L66.019222,16.123052 C66.019222,18.0094687 66.5091539,19.2915169 68.4259679,19.2915169 C71.2278779,19.2915169 72.7817131,16.8221884 72.7817131,14.0506756 L72.7817131,6.92520575 L76.6511025,6.92520575 L76.6511025,22.4581937 L72.9354874,22.4581937 L72.9354874,20.6915778 C72.9354874,20.0836331 72.9944938,19.5954892 72.9944938,19.5954892 L72.9354874,19.5954892 C72.1737684,21.2083309 70.1925838,22.8265367 67.544448,22.8265367 C64.2239969,22.8265367 62.1534087,21.1493245 62.1534087,16.9151682 L62.1534087,6.92520575" id="Fill-4" sketch:type="MSShapeGroup"></path>
            <path d="M80.5884387,17.8288734 C80.5884387,17.8288734 82.292472,19.5364828 84.8243831,19.5364828 C85.9186836,19.5364828 86.8609979,19.0465509 86.8609979,18.1328457 C86.8609979,15.8190796 79.3099667,16.123052 79.3099667,11.1289648 C79.3099667,8.234075 81.899096,6.55865084 85.2481563,6.55865084 C88.7509908,6.55865084 90.4586003,8.32526671 90.4586003,8.32526671 L89.026354,11.1897593 C89.026354,11.1897593 87.5941077,9.84870469 85.2195471,9.84870469 C84.2146502,9.84870469 83.2401506,10.274266 83.2401506,11.2487657 C83.2401506,13.4427309 90.7929699,13.1691558 90.7929699,18.163243 C90.7929699,20.7505842 88.5382101,22.8265367 84.8529922,22.8265367 C80.9836028,22.8265367 78.8218228,20.5378036 78.8218228,20.5378036 L80.5884387,17.8288734" id="Fill-5" sketch:type="MSShapeGroup"></path>
            <path d="M109.97005,0.46847506 C115.2395,0.46847506 117.950219,3.42237124 117.950219,3.42237124 L116.063802,6.34587018 C116.063802,6.34587018 113.594474,4.06250128 110.154222,4.06250128 C105.583908,4.06250128 102.905375,7.47414408 102.905375,11.4955197 C102.905375,15.6062989 105.675099,19.2289343 110.182831,19.2289343 C113.930631,19.2289343 116.458966,16.4896069 116.458966,16.4896069 L118.529554,19.3237022 C118.529554,19.3237022 115.543473,22.8265367 110.032633,22.8265367 C103.422128,22.8265367 98.8536018,17.9200651 98.8536018,11.5545261 C98.8536018,5.28017882 103.606299,0.46847506 109.97005,0.46847506" id="Fill-6" sketch:type="MSShapeGroup"></path>
            <path d="M120.603719,6.92520575 L124.319334,6.92520575 L124.319334,9.60373872 C124.319334,10.1830743 124.260327,10.6998273 124.260327,10.6998273 L124.319334,10.6998273 C125.022046,8.47904097 126.879854,6.71242509 129.254415,6.71242509 C129.62097,6.71242509 129.957127,6.77321957 129.957127,6.77321957 L129.957127,10.5800264 C129.957127,10.5800264 129.561963,10.519232 129.041634,10.519232 C127.396607,10.519232 125.542376,11.4615463 124.809266,13.7771005 C124.5643,14.5388195 124.473108,15.3935183 124.473108,16.3054354 L124.473108,22.4581937 L120.603719,22.4581937 L120.603719,6.92520575" id="Fill-7" sketch:type="MSShapeGroup"></path>
            <path d="M138.901067,6.55865084 C143.374825,6.55865084 145.779783,9.81830745 145.779783,13.9308748 C145.779783,14.3886214 145.688591,15.4221274 145.688591,15.4221274 L134.967307,15.4221274 C135.212273,18.1328457 137.315047,19.5364828 139.630601,19.5364828 C142.12675,19.5364828 144.107935,17.8288734 144.107935,17.8288734 L145.599188,20.6021742 C145.599188,20.6021742 143.224627,22.8265367 139.35345,22.8265367 C134.207376,22.8265367 131.01209,19.1091334 131.01209,14.6925938 C131.01209,9.90949916 134.269959,6.55865084 138.901067,6.55865084 C138.901067,6.55865084 134.269959,6.55865084 138.901067,6.55865084 L138.901067,6.55865084 L138.901067,6.55865084 Z M141.883572,12.7739917 C141.822778,10.6730062 140.513909,9.54473232 138.806299,9.54473232 C136.826903,9.54473232 135.457239,10.7624099 135.090684,12.7739917 L141.883572,12.7739917 L141.883572,12.7739917 Z M141.883572,12.7739917" id="Fill-8" sketch:type="MSShapeGroup"></path>
            <path d="M156.867622,12.7114092 L157.384375,12.7114092 L157.384375,12.4986285 C157.384375,10.4566494 156.104115,9.75751298 154.400082,9.75751298 C152.173931,9.75751298 150.135528,11.2487657 150.135528,11.2487657 L148.674673,8.47904097 C148.674673,8.47904097 151.077843,6.55865084 154.766637,6.55865084 C158.845231,6.55865084 161.223367,8.81519864 161.223367,12.7418064 L161.223367,22.4581937 L157.65795,22.4581937 L157.65795,21.1779336 C157.65795,20.5699889 157.716957,20.0836331 157.716957,20.0836331 L157.65795,20.0836331 C157.690136,20.0836331 156.47067,22.8265367 152.939226,22.8265367 C150.165925,22.8265367 147.6662,21.0867419 147.6662,17.9826476 C147.6662,13.0475668 154.339287,12.7114092 156.867622,12.7114092 C156.867622,12.7114092 154.339287,12.7114092 156.867622,12.7114092 L156.867622,12.7114092 L156.867622,12.7114092 Z M153.913726,19.8082699 C155.953917,19.8082699 157.412984,17.6160927 157.412984,15.7278879 L157.412984,15.363121 L156.746033,15.363121 C154.766637,15.363121 151.567774,15.6349081 151.567774,17.7966881 C151.567774,18.8337702 152.327705,19.8082699 153.913726,19.8082699 L153.913726,19.8082699 Z M153.913726,19.8082699" id="Fill-9" sketch:type="MSShapeGroup"></path>
            <path d="M164.883552,10.2420807 L162.87197,10.2420807 L162.87197,7.17017172 L164.974744,7.17017172 L164.974744,2.69283756 L168.752942,2.69283756 L168.752942,7.17017172 L172.286173,7.17017172 L172.286173,10.2420807 L168.752942,10.2420807 L168.752942,16.2750381 C168.752942,18.8337702 170.760947,19.2003252 171.830215,19.2003252 C172.255776,19.2003252 172.527563,19.1377426 172.527563,19.1377426 L172.527563,22.5189882 C172.527563,22.5189882 172.069817,22.613756 171.340283,22.613756 C169.174927,22.613756 164.883552,21.9700498 164.883552,16.763182 L164.883552,10.2420807" id="Fill-10" sketch:type="MSShapeGroup"></path>
            <path d="M181.825542,6.55865084 C186.301088,6.55865084 188.707834,9.81830745 188.707834,13.9308748 C188.707834,14.3886214 188.613066,15.4221274 188.613066,15.4221274 L177.895358,15.4221274 C178.136747,18.1328457 180.239521,19.5364828 182.555075,19.5364828 C185.051225,19.5364828 187.032409,17.8288734 187.032409,17.8288734 L188.523662,20.6021742 C188.523662,20.6021742 186.147313,22.8265367 182.277924,22.8265367 C177.130062,22.8265367 173.934776,19.1091334 173.934776,14.6925938 C173.934776,9.90949916 177.194433,6.55865084 181.825542,6.55865084 C181.825542,6.55865084 177.194433,6.55865084 181.825542,6.55865084 L181.825542,6.55865084 L181.825542,6.55865084 Z M184.806259,12.7739917 C184.747252,10.6730062 183.438383,9.54473232 181.73435,9.54473232 C179.749589,9.54473232 178.381713,10.7624099 178.018735,12.7739917 L184.806259,12.7739917 L184.806259,12.7739917 Z M184.806259,12.7739917" id="Fill-11" sketch:type="MSShapeGroup"></path>
        </g>
    </g>
</svg>